<?xml version="1.0" encoding="UTF-8" standalone="no"?>
<!-- Created with Inkscape (http://www.inkscape.org/) -->

<svg
   width="59.806774mm"
   height="74.758469mm"
   viewBox="0 0 59.806774 74.758469"
   version="1.1"
   id="svg1"
   xml:space="preserve"
   xmlns="http://www.w3.org/2000/svg"
   xmlns:svg="http://www.w3.org/2000/svg"><defs
     id="defs1" /><rect
     style="display:inline;opacity:1;fill:#5e54e9;fill-opacity:1;stroke:none;stroke-width:0.715414;stroke-dasharray:none;stroke-opacity:1"
     id="rect4"
     width="49.945877"
     height="66.44619"
     x="3.8313749"
     y="3.8313663" /><g
     id="layer1"
     transform="translate(-68.483857,-117.82209)"><g
       style="fill:#342396;fill-opacity:1"
       id="g1"
       transform="matrix(0.03407485,0,0,0.03407485,132.4356,161.73516)"><path
         d="m -984.00871,-148.41433 -199.99999,-200 199.99999,-200 57,56 -103.99999,104 h 606.99999 v 80 h -606.99999 l 103.99999,104 z m 400,-320 -57,-56 104,-104 h -606.99999 v -80 h 606.99999 l -104,-104 57,-56 200,200 z"
         id="path1"
         style="fill:#342396;fill-opacity:1" /></g><g
       style="fill:#342396;fill-opacity:1;stroke:none;stroke-opacity:1"
       id="g2"
       transform="matrix(0.09344808,0,0,0.09344808,53.532171,200.0564)"><path
         d="m 300,-80 q -58,0 -99,-41 -41,-41 -41,-99 v -520 q 0,-58 41,-99 41,-41 99,-41 h 500 v 600 q -25,0 -42.5,17.5 -17.5,17.5 -17.5,42.5 0,25 17.5,42.5 17.5,17.5 42.5,17.5 v 80 z m -60,-267 q 14,-7 29,-10 15,-3 31,-3 h 20 v -440 h -20 q -25,0 -42.5,17.5 Q 240,-765 240,-740 Z m 160,-13 H 720 V -800 H 400 Z m -160,13 v -453 z m 60,187 h 373 q -6,-14 -9.5,-28.5 -3.5,-14.5 -3.5,-31.5 0,-16 3,-31 3,-15 10,-29 H 300 q -26,0 -43,17.5 -17,17.5 -17,42.5 0,26 17,43 17,17 43,17 z"
         id="path1-0"
         style="fill:#342396;fill-opacity:1;stroke:none;stroke-opacity:1" /></g></g></svg>
